<mxfile host="65bd71144e">
    <diagram id="FWiJDPVRLPy7m21FmPq1" name="Page-1">
        <mxGraphModel dx="268" dy="231" grid="1" gridSize="10" guides="1" tooltips="1" connect="1" arrows="1" fold="1" page="1" pageScale="1" pageWidth="850" pageHeight="1100" background="#FFFFFF" math="0" shadow="0">
            <root>
                <mxCell id="0"/>
                <mxCell id="1" parent="0"/>
                <mxCell id="40" value="" style="endArrow=none;dashed=1;html=1;dashPattern=1 3;strokeWidth=2;rounded=0;strokeColor=#000000;startArrow=none;" parent="1" source="51" target="41" edge="1">
                    <mxGeometry width="50" height="50" relative="1" as="geometry">
                        <mxPoint x="160" y="650" as="sourcePoint"/>
                        <mxPoint x="160" y="120" as="targetPoint"/>
                    </mxGeometry>
                </mxCell>
                <mxCell id="41" value="&lt;font color=&quot;#3d3d3d&quot;&gt;Frontend&lt;/font&gt;" style="rounded=0;whiteSpace=wrap;html=1;fillColor=#f5f5f5;strokeColor=#666666;fontColor=#333333;" parent="1" vertex="1">
                    <mxGeometry x="100" y="90" width="120" height="60" as="geometry"/>
                </mxCell>
                <mxCell id="42" value="" style="endArrow=none;dashed=1;html=1;dashPattern=1 3;strokeWidth=2;rounded=0;strokeColor=#000000;" parent="1" target="43" edge="1">
                    <mxGeometry width="50" height="50" relative="1" as="geometry">
                        <mxPoint x="340" y="650" as="sourcePoint"/>
                        <mxPoint x="340" y="120" as="targetPoint"/>
                    </mxGeometry>
                </mxCell>
                <mxCell id="43" value="&lt;font color=&quot;#3d3d3d&quot;&gt;Backend&lt;/font&gt;" style="rounded=0;whiteSpace=wrap;html=1;fillColor=#f5f5f5;strokeColor=#666666;fontColor=#333333;" parent="1" vertex="1">
                    <mxGeometry x="280" y="90" width="120" height="60" as="geometry"/>
                </mxCell>
                <mxCell id="44" value="" style="endArrow=none;dashed=1;html=1;dashPattern=1 3;strokeWidth=2;rounded=0;strokeColor=#000000;startArrow=none;" parent="1" target="45" edge="1">
                    <mxGeometry width="50" height="50" relative="1" as="geometry">
                        <mxPoint x="520" y="180" as="sourcePoint"/>
                        <mxPoint x="520" y="120" as="targetPoint"/>
                    </mxGeometry>
                </mxCell>
                <mxCell id="45" value="&lt;font color=&quot;#3d3d3d&quot;&gt;Keycloak&lt;br&gt;&lt;/font&gt;" style="rounded=0;whiteSpace=wrap;html=1;fillColor=#f5f5f5;strokeColor=#666666;fontColor=#333333;" parent="1" vertex="1">
                    <mxGeometry x="460" y="90" width="120" height="60" as="geometry"/>
                </mxCell>
                <mxCell id="46" value="" style="endArrow=classic;html=1;fontColor=#3D3D3D;strokeColor=#000000;entryX=0;entryY=0;entryDx=0;entryDy=0;" parent="1" edge="1">
                    <mxGeometry width="50" height="50" relative="1" as="geometry">
                        <mxPoint x="160" y="180" as="sourcePoint"/>
                        <mxPoint x="512.5" y="180.0000000000001" as="targetPoint"/>
                    </mxGeometry>
                </mxCell>
                <mxCell id="48" value="" style="endArrow=none;dashed=1;html=1;dashPattern=1 3;strokeWidth=2;rounded=0;strokeColor=#000000;startArrow=none;" parent="1" source="56" edge="1">
                    <mxGeometry width="50" height="50" relative="1" as="geometry">
                        <mxPoint x="520" y="650" as="sourcePoint"/>
                        <mxPoint x="520" y="300" as="targetPoint"/>
                    </mxGeometry>
                </mxCell>
                <mxCell id="49" value="Redirect to keycloak login page" style="text;html=1;strokeColor=none;fillColor=none;align=center;verticalAlign=middle;whiteSpace=wrap;rounded=0;labelBackgroundColor=#FFFFFF;fontColor=#3D3D3D;" parent="1" vertex="1">
                    <mxGeometry x="160" y="160" width="180" height="20" as="geometry"/>
                </mxCell>
                <mxCell id="51" value="" style="rounded=0;whiteSpace=wrap;html=1;labelBackgroundColor=#FFFFFF;fontColor=#333333;fillColor=#f5f5f5;strokeColor=#666666;" parent="1" vertex="1">
                    <mxGeometry x="152.5" y="300" width="15" height="40" as="geometry"/>
                </mxCell>
                <mxCell id="52" value="" style="endArrow=none;dashed=1;html=1;dashPattern=1 3;strokeWidth=2;rounded=0;strokeColor=#000000;" parent="1" target="51" edge="1">
                    <mxGeometry width="50" height="50" relative="1" as="geometry">
                        <mxPoint x="160" y="650" as="sourcePoint"/>
                        <mxPoint x="160" y="150" as="targetPoint"/>
                    </mxGeometry>
                </mxCell>
                <mxCell id="53" value="" style="endArrow=classic;html=1;fontColor=#3D3D3D;strokeColor=#000000;exitX=0;exitY=1;exitDx=0;exitDy=0;entryX=1;entryY=0;entryDx=0;entryDy=0;" parent="1" target="51" edge="1">
                    <mxGeometry width="50" height="50" relative="1" as="geometry">
                        <mxPoint x="512.5" y="300" as="sourcePoint"/>
                        <mxPoint x="500" y="220" as="targetPoint"/>
                    </mxGeometry>
                </mxCell>
                <mxCell id="54" value="Redirect to callback page" style="text;html=1;strokeColor=none;fillColor=none;align=center;verticalAlign=middle;whiteSpace=wrap;rounded=0;labelBackgroundColor=#FFFFFF;fontColor=#3D3D3D;" parent="1" vertex="1">
                    <mxGeometry x="360" y="280" width="140" height="20" as="geometry"/>
                </mxCell>
                <mxCell id="56" value="" style="rounded=0;whiteSpace=wrap;html=1;labelBackgroundColor=#FFFFFF;fontColor=#333333;fillColor=#f5f5f5;strokeColor=#666666;" parent="1" vertex="1">
                    <mxGeometry x="512.5" y="340" width="15" height="40" as="geometry"/>
                </mxCell>
                <mxCell id="57" value="" style="endArrow=none;dashed=1;html=1;dashPattern=1 3;strokeWidth=2;rounded=0;strokeColor=#000000;" parent="1" target="56" edge="1">
                    <mxGeometry width="50" height="50" relative="1" as="geometry">
                        <mxPoint x="520" y="650" as="sourcePoint"/>
                        <mxPoint x="520" y="300" as="targetPoint"/>
                    </mxGeometry>
                </mxCell>
                <mxCell id="58" value="" style="endArrow=classic;html=1;fontColor=#3D3D3D;strokeColor=#000000;entryX=0;entryY=0;entryDx=0;entryDy=0;exitX=1;exitY=1;exitDx=0;exitDy=0;" parent="1" source="51" target="56" edge="1">
                    <mxGeometry width="50" height="50" relative="1" as="geometry">
                        <mxPoint x="170" y="350" as="sourcePoint"/>
                        <mxPoint x="512.5" y="338.8200000000001" as="targetPoint"/>
                    </mxGeometry>
                </mxCell>
                <mxCell id="62" value="Request new token using the code" style="text;html=1;strokeColor=none;fillColor=none;align=center;verticalAlign=middle;whiteSpace=wrap;rounded=0;labelBackgroundColor=#FFFFFF;fontColor=#3D3D3D;" parent="1" vertex="1">
                    <mxGeometry x="167.5" y="320" width="190" height="20" as="geometry"/>
                </mxCell>
                <mxCell id="63" value="" style="rounded=0;whiteSpace=wrap;html=1;labelBackgroundColor=#FFFFFF;fontColor=#333333;fillColor=#f5f5f5;strokeColor=#666666;" parent="1" vertex="1">
                    <mxGeometry x="152.5" y="380" width="15" height="40" as="geometry"/>
                </mxCell>
                <mxCell id="64" value="" style="endArrow=classic;html=1;fontColor=#3D3D3D;strokeColor=#000000;exitX=0;exitY=1;exitDx=0;exitDy=0;entryX=1;entryY=0;entryDx=0;entryDy=0;" parent="1" edge="1">
                    <mxGeometry width="50" height="50" relative="1" as="geometry">
                        <mxPoint x="512.5" y="379.2299999999999" as="sourcePoint"/>
                        <mxPoint x="167.5" y="379.23" as="targetPoint"/>
                    </mxGeometry>
                </mxCell>
                <mxCell id="65" value="Returns token" style="text;html=1;strokeColor=none;fillColor=none;align=center;verticalAlign=middle;whiteSpace=wrap;rounded=0;labelBackgroundColor=#FFFFFF;fontColor=#3D3D3D;" parent="1" vertex="1">
                    <mxGeometry x="360" y="359.23" width="140" height="20" as="geometry"/>
                </mxCell>
                <mxCell id="67" value="" style="rounded=0;whiteSpace=wrap;html=1;labelBackgroundColor=#FFFFFF;fontColor=#333333;fillColor=#f5f5f5;strokeColor=#666666;" parent="1" vertex="1">
                    <mxGeometry x="332.5" y="420" width="15" height="40" as="geometry"/>
                </mxCell>
                <mxCell id="68" value="" style="endArrow=classic;html=1;fontColor=#3D3D3D;strokeColor=#000000;exitX=1;exitY=1;exitDx=0;exitDy=0;entryX=0;entryY=0;entryDx=0;entryDy=0;" parent="1" source="63" target="67" edge="1">
                    <mxGeometry width="50" height="50" relative="1" as="geometry">
                        <mxPoint x="522.5" y="389.2299999999999" as="sourcePoint"/>
                        <mxPoint x="177.5" y="389.23" as="targetPoint"/>
                    </mxGeometry>
                </mxCell>
                <mxCell id="70" value="fetch protected resources with token" style="text;html=1;strokeColor=none;fillColor=none;align=center;verticalAlign=middle;whiteSpace=wrap;rounded=0;labelBackgroundColor=#FFFFFF;fontColor=#3D3D3D;" parent="1" vertex="1">
                    <mxGeometry x="180" y="390" width="140" height="20" as="geometry"/>
                </mxCell>
                <mxCell id="71" value="" style="endArrow=classic;html=1;fontColor=#3D3D3D;strokeColor=#000000;exitX=1;exitY=1;exitDx=0;exitDy=0;entryX=0;entryY=0;entryDx=0;entryDy=0;" parent="1" edge="1">
                    <mxGeometry width="50" height="50" relative="1" as="geometry">
                        <mxPoint x="347.5000000000001" y="459.35" as="sourcePoint"/>
                        <mxPoint x="512.5" y="459.35" as="targetPoint"/>
                    </mxGeometry>
                </mxCell>
                <mxCell id="72" value="check token validity" style="text;html=1;strokeColor=none;fillColor=none;align=center;verticalAlign=middle;whiteSpace=wrap;rounded=0;labelBackgroundColor=#FFFFFF;fontColor=#3D3D3D;" parent="1" vertex="1">
                    <mxGeometry x="355" y="440" width="140" height="20" as="geometry"/>
                </mxCell>
                <mxCell id="73" value="" style="rounded=0;whiteSpace=wrap;html=1;labelBackgroundColor=#FFFFFF;fontColor=#333333;fillColor=#f5f5f5;strokeColor=#666666;" parent="1" vertex="1">
                    <mxGeometry x="512.5" y="460" width="15" height="40" as="geometry"/>
                </mxCell>
                <mxCell id="76" value="" style="endArrow=classic;html=1;fontColor=#3D3D3D;strokeColor=#000000;exitX=0;exitY=1;exitDx=0;exitDy=0;entryX=1;entryY=0;entryDx=0;entryDy=0;" parent="1" source="73" target="77" edge="1">
                    <mxGeometry width="50" height="50" relative="1" as="geometry">
                        <mxPoint x="357.5000000000001" y="469.35" as="sourcePoint"/>
                        <mxPoint x="350" y="500" as="targetPoint"/>
                    </mxGeometry>
                </mxCell>
                <mxCell id="77" value="" style="rounded=0;whiteSpace=wrap;html=1;labelBackgroundColor=#FFFFFF;fontColor=#333333;fillColor=#f5f5f5;strokeColor=#666666;" parent="1" vertex="1">
                    <mxGeometry x="332.5" y="500" width="15" height="60" as="geometry"/>
                </mxCell>
                <mxCell id="78" value="valid token, return user info" style="text;html=1;strokeColor=none;fillColor=none;align=center;verticalAlign=middle;whiteSpace=wrap;rounded=0;labelBackgroundColor=#FFFFFF;fontColor=#3D3D3D;" parent="1" vertex="1">
                    <mxGeometry x="360" y="480" width="150" height="20" as="geometry"/>
                </mxCell>
                <mxCell id="79" value="" style="endArrow=classic;html=1;fontColor=#3D3D3D;strokeColor=#000000;exitX=0;exitY=1;exitDx=0;exitDy=0;entryX=1;entryY=0;entryDx=0;entryDy=0;" parent="1" source="77" edge="1">
                    <mxGeometry width="50" height="50" relative="1" as="geometry">
                        <mxPoint x="325" y="560" as="sourcePoint"/>
                        <mxPoint x="160" y="560" as="targetPoint"/>
                    </mxGeometry>
                </mxCell>
                <mxCell id="80" value="return protected resource" style="text;html=1;strokeColor=none;fillColor=none;align=center;verticalAlign=middle;whiteSpace=wrap;rounded=0;labelBackgroundColor=#FFFFFF;fontColor=#3D3D3D;" parent="1" vertex="1">
                    <mxGeometry x="182.5" y="540" width="150" height="20" as="geometry"/>
                </mxCell>
                <mxCell id="82" value="&lt;font color=&quot;#3d3d3d&quot;&gt;Google&lt;br&gt;&lt;/font&gt;" style="rounded=0;whiteSpace=wrap;html=1;fillColor=#f5f5f5;strokeColor=#666666;fontColor=#333333;" vertex="1" parent="1">
                    <mxGeometry x="630" y="90" width="120" height="60" as="geometry"/>
                </mxCell>
                <mxCell id="86" value="" style="endArrow=none;dashed=1;html=1;dashPattern=1 3;strokeWidth=2;rounded=0;strokeColor=#000000;entryX=0.5;entryY=1;entryDx=0;entryDy=0;startArrow=none;" edge="1" parent="1" target="82" source="89">
                    <mxGeometry width="50" height="50" relative="1" as="geometry">
                        <mxPoint x="690" y="650" as="sourcePoint"/>
                        <mxPoint x="690" y="380" as="targetPoint"/>
                    </mxGeometry>
                </mxCell>
                <mxCell id="89" value="" style="rounded=0;whiteSpace=wrap;html=1;labelBackgroundColor=#FFFFFF;fontColor=#333333;fillColor=#f5f5f5;strokeColor=#666666;" vertex="1" parent="1">
                    <mxGeometry x="682.5" y="190" width="15" height="30" as="geometry"/>
                </mxCell>
                <mxCell id="90" value="" style="endArrow=none;dashed=1;html=1;dashPattern=1 3;strokeWidth=2;rounded=0;strokeColor=#000000;entryX=0.5;entryY=1;entryDx=0;entryDy=0;" edge="1" parent="1" target="89">
                    <mxGeometry width="50" height="50" relative="1" as="geometry">
                        <mxPoint x="690" y="650" as="sourcePoint"/>
                        <mxPoint x="690" y="150" as="targetPoint"/>
                    </mxGeometry>
                </mxCell>
                <mxCell id="91" value="" style="rounded=0;whiteSpace=wrap;html=1;labelBackgroundColor=#FFFFFF;fontColor=#333333;fillColor=#f5f5f5;strokeColor=#666666;" vertex="1" parent="1">
                    <mxGeometry x="512.5" y="180" width="15" height="10" as="geometry"/>
                </mxCell>
                <mxCell id="93" value="" style="endArrow=none;dashed=1;html=1;dashPattern=1 3;strokeWidth=2;rounded=0;strokeColor=#000000;startArrow=none;exitX=0.5;exitY=1;exitDx=0;exitDy=0;" edge="1" parent="1" source="91">
                    <mxGeometry width="50" height="50" relative="1" as="geometry">
                        <mxPoint x="520" y="200" as="sourcePoint"/>
                        <mxPoint x="520" y="211.00000000000006" as="targetPoint"/>
                    </mxGeometry>
                </mxCell>
                <mxCell id="94" value="" style="endArrow=classic;html=1;fontColor=#3D3D3D;strokeColor=#000000;entryX=0;entryY=0;entryDx=0;entryDy=0;" edge="1" parent="1">
                    <mxGeometry width="50" height="50" relative="1" as="geometry">
                        <mxPoint x="513.75" y="190" as="sourcePoint"/>
                        <mxPoint x="682.5" y="190" as="targetPoint"/>
                    </mxGeometry>
                </mxCell>
                <mxCell id="95" value="Redirect to google Oauth" style="text;html=1;strokeColor=none;fillColor=none;align=center;verticalAlign=middle;whiteSpace=wrap;rounded=0;labelBackgroundColor=#FFFFFF;fontColor=#3D3D3D;" vertex="1" parent="1">
                    <mxGeometry x="523.5" y="169" width="162.5" height="20" as="geometry"/>
                </mxCell>
                <mxCell id="96" value="" style="endArrow=classic;html=1;fontColor=#3D3D3D;strokeColor=#000000;entryX=1;entryY=0;entryDx=0;entryDy=0;" edge="1" parent="1">
                    <mxGeometry width="50" height="50" relative="1" as="geometry">
                        <mxPoint x="681" y="219" as="sourcePoint"/>
                        <mxPoint x="528.5" y="219" as="targetPoint"/>
                    </mxGeometry>
                </mxCell>
                <mxCell id="97" value="Redirect to keycloak callback" style="text;html=1;strokeColor=none;fillColor=none;align=center;verticalAlign=middle;whiteSpace=wrap;rounded=0;labelBackgroundColor=#FFFFFF;fontColor=#3D3D3D;" vertex="1" parent="1">
                    <mxGeometry x="520" y="194" width="162.5" height="20" as="geometry"/>
                </mxCell>
                <mxCell id="99" value="" style="rounded=0;whiteSpace=wrap;html=1;labelBackgroundColor=#FFFFFF;fontColor=#333333;fillColor=#f5f5f5;strokeColor=#666666;" vertex="1" parent="1">
                    <mxGeometry x="512.5" y="270" width="15" height="30" as="geometry"/>
                </mxCell>
                <mxCell id="100" value="" style="rounded=0;whiteSpace=wrap;html=1;labelBackgroundColor=#FFFFFF;fontColor=#333333;fillColor=#f5f5f5;strokeColor=#666666;" vertex="1" parent="1">
                    <mxGeometry x="682.5" y="242" width="15" height="28" as="geometry"/>
                </mxCell>
                <mxCell id="101" value="" style="rounded=0;whiteSpace=wrap;html=1;labelBackgroundColor=#FFFFFF;fontColor=#333333;fillColor=#f5f5f5;strokeColor=#666666;" vertex="1" parent="1">
                    <mxGeometry x="512.5" y="220" width="15" height="22" as="geometry"/>
                </mxCell>
                <mxCell id="103" value="" style="endArrow=none;dashed=1;html=1;dashPattern=1 3;strokeWidth=2;rounded=0;strokeColor=#000000;startArrow=none;exitX=0.5;exitY=1;exitDx=0;exitDy=0;" edge="1" parent="1" source="101" target="99">
                    <mxGeometry width="50" height="50" relative="1" as="geometry">
                        <mxPoint x="520" y="252" as="sourcePoint"/>
                        <mxPoint x="520" y="263" as="targetPoint"/>
                    </mxGeometry>
                </mxCell>
                <mxCell id="104" value="" style="endArrow=classic;html=1;fontColor=#3D3D3D;strokeColor=#000000;entryX=0;entryY=0;entryDx=0;entryDy=0;" edge="1" parent="1">
                    <mxGeometry width="50" height="50" relative="1" as="geometry">
                        <mxPoint x="513.75" y="242" as="sourcePoint"/>
                        <mxPoint x="682.5" y="242" as="targetPoint"/>
                    </mxGeometry>
                </mxCell>
                <mxCell id="105" value="Request google token" style="text;html=1;strokeColor=none;fillColor=none;align=center;verticalAlign=middle;whiteSpace=wrap;rounded=0;labelBackgroundColor=#FFFFFF;fontColor=#3D3D3D;" vertex="1" parent="1">
                    <mxGeometry x="523.5" y="223" width="162.5" height="20" as="geometry"/>
                </mxCell>
                <mxCell id="106" value="" style="endArrow=classic;html=1;fontColor=#3D3D3D;strokeColor=#000000;entryX=1;entryY=0;entryDx=0;entryDy=0;" edge="1" parent="1">
                    <mxGeometry width="50" height="50" relative="1" as="geometry">
                        <mxPoint x="680.9999999999999" y="269.00000000000006" as="sourcePoint"/>
                        <mxPoint x="528.5" y="269.00000000000006" as="targetPoint"/>
                    </mxGeometry>
                </mxCell>
                <mxCell id="107" value="returns token" style="text;html=1;strokeColor=none;fillColor=none;align=center;verticalAlign=middle;whiteSpace=wrap;rounded=0;labelBackgroundColor=#FFFFFF;fontColor=#3D3D3D;" vertex="1" parent="1">
                    <mxGeometry x="538.5" y="250" width="132.5" height="20" as="geometry"/>
                </mxCell>
            </root>
        </mxGraphModel>
    </diagram>
</mxfile>